<svg xmlns="http://www.w3.org/2000/svg" width="12.25" height="20" viewBox="0 0 12.25 20">
  <defs>
    <style>
      .cls-1 {
        fill: #98d389;
        fill-rule: evenodd;
      }
    </style>
  </defs>
  <path id="Shape_391_copy" data-name="Shape 391 copy" class="cls-1" d="M340.121,3339.11h3.6v-1.44h-3.6v1.44Zm5.679-17.17h-7.976a2.363,2.363,0,0,0-2.126,2.54v14.91a2.363,2.363,0,0,0,2.126,2.54H345.8a2.363,2.363,0,0,0,2.126-2.54v-14.91A2.363,2.363,0,0,0,345.8,3321.94Zm0.778,17.45a1,1,0,0,1-.778,1.1h-7.976a1,1,0,0,1-.778-1.1v-3.11h9.532v3.11Zm0-4.54h-9.532v-10.37a0.994,0.994,0,0,1,.778-1.1H345.8a0.994,0.994,0,0,1,.778,1.1v10.37Z" transform="translate(-335.688 -3321.94)"/>
</svg>
