<svg xmlns="http://www.w3.org/2000/svg" width="27.97" height="27.97" viewBox="0 0 27.97 27.97">
  <defs>
    <style>
      .cls-1 {
        fill: #98d389;
        fill-rule: evenodd;
      }
    </style>
  </defs>
  <path class="cls-1" d="M1374.58,3391.75l5.7-3.35-5.7-3.35v6.7Zm2.4-17.81a13.98,13.98,0,1,0,13.98,13.98A13.981,13.981,0,0,0,1376.98,3373.94Zm8.63,17.57a2.938,2.938,0,0,1-3,3h-11.42a2.941,2.941,0,0,1-3.01-3v-6.23a2.948,2.948,0,0,1,3.01-3.01h11.42a2.945,2.945,0,0,1,3,3.01v6.23Z" transform="translate(-1363 -3373.94)"/>
</svg>
