<svg xmlns="http://www.w3.org/2000/svg" width="49.78" height="49.906" viewBox="0 0 49.78 49.906">
  <defs>
    <style>
      .cls-1 {
        fill: #9ad58a;
        fill-rule: evenodd;
      }
    </style>
  </defs>
  <path class="cls-1" d="M1779.05,708h-0.22a24.925,24.925,0,0,0-24.89,25.165,25.026,25.026,0,0,0,24.67,24.73h0.22a24.925,24.925,0,0,0,24.89-25.164A25.025,25.025,0,0,0,1779.05,708Zm-0.22,47.969h-0.2a23.033,23.033,0,0,1-16.11-39.232,22.776,22.776,0,0,1,16.31-6.813h0.2a23.032,23.032,0,0,1,16.11,39.231A22.772,22.772,0,0,1,1778.83,755.97Zm9.44-25.883-12.36-7.381a3.955,3.955,0,0,0-2.03-.61c-1.78,0-3.02,1.435-3.02,3.489v14.729c0,2.054,1.24,3.489,3.02,3.489a3.977,3.977,0,0,0,2.03-.606l12.36-7.351A3.18,3.18,0,0,0,1788.27,730.087Zm-15.49-4.5c0-.979.41-1.564,1.1-1.564V723.6h0v0.42a2.126,2.126,0,0,1,1.05.339l12.36,7.381a1.52,1.52,0,0,1,.89,1.225,1.542,1.542,0,0,1-.89,1.225l-12.36,7.35a2.111,2.111,0,0,1-1.05.337c-0.69,0-1.1-.585-1.1-1.564V725.585Z" transform="translate(-1753.94 -708)"/>
</svg>
