<svg xmlns="http://www.w3.org/2000/svg" xmlns:xlink="http://www.w3.org/1999/xlink" width="63.062" height="66.28" viewBox="0 0 63.062 66.28">
  <defs>
    <style>
      .cls-1 {
        fill: #ec8b01;
        fill-rule: evenodd;
        filter: url(#filter);
      }
    </style>
    <filter id="filter" x="282.25" y="1960.72" width="63.062" height="66.28" filterUnits="userSpaceOnUse">
      <feFlood result="flood" flood-color="#9ad58a"/>
      <feComposite result="composite" operator="in" in2="SourceGraphic"/>
      <feBlend result="blend" in2="SourceGraphic"/>
    </filter>
  </defs>
  <path id="Shape_1_copy" data-name="Shape 1 copy" class="cls-1" d="M296.063,1989.49h1.047l-4.831,14.8a0.969,0.969,0,0,0,.618,1.22,1.042,1.042,0,0,0,.3.05,0.966,0.966,0,0,0,.917-0.67l5.026-15.4h11.806l5.026,15.4a0.966,0.966,0,0,0,.917.67,1.047,1.047,0,0,0,.3-0.05,0.969,0.969,0,0,0,.618-1.22l-4.831-14.8h1.047a0.965,0.965,0,1,0,0-1.93h-1.677l-3.482-10.67a6.151,6.151,0,0,0-2.856-10.91v-4.28a0.965,0.965,0,1,0-1.93,0v4.28a6.151,6.151,0,0,0-2.856,10.91l-3.482,10.67h-1.677A0.965,0.965,0,1,0,296.063,1989.49Zm8.98-21.67a4.24,4.24,0,1,1-4.237,4.24A4.242,4.242,0,0,1,305.043,1967.82Zm-2.1,10.03a6.015,6.015,0,0,0,4.208,0l3.169,9.71H299.77Zm35.957-7.62H316.645a0.965,0.965,0,1,0,0,1.93H338.9a4.477,4.477,0,0,1,4.479,4.47v43.96a4.485,4.485,0,0,1-4.479,4.48H288.662a4.485,4.485,0,0,1-4.479-4.48v-43.96a4.476,4.476,0,0,1,4.479-4.47h4.778a0.965,0.965,0,1,0,0-1.93h-4.778a6.411,6.411,0,0,0-6.409,6.4v43.96a6.42,6.42,0,0,0,6.409,6.41H338.9a6.42,6.42,0,0,0,6.409-6.41v-43.96A6.411,6.411,0,0,0,338.9,1970.23Zm-24.152,42.82a0.965,0.965,0,1,0-1.93,0v2.04h-8.361v-2.04a0.965,0.965,0,1,0-1.93,0v2.04h-8.361v-2.04a0.966,0.966,0,1,0-1.931,0v3.01a0.963,0.963,0,0,0,.965.96h41.165a0.962,0.962,0,0,0,.965-0.96v-3.01a0.965,0.965,0,1,0-1.93,0v2.04h-8.361v-2.04a0.965,0.965,0,1,0-1.93,0v2.04h-8.361v-2.04Zm14.095-33.3h-9.308a0.965,0.965,0,1,0,0,1.93h8.343v6.84a0.965,0.965,0,0,0,.965.97H333.4v13.94h-5.815a0.965,0.965,0,1,0,0,1.93h6.78a0.962,0.962,0,0,0,.965-0.96v-15.88a0.962,0.962,0,0,0-.965-0.96H329.8v-6.85A0.963,0.963,0,0,0,328.839,1979.75Z" transform="translate(-282.25 -1960.72)"/>
</svg>
