<svg xmlns="http://www.w3.org/2000/svg" width="32" height="33" viewBox="0 0 32 33">
  <defs>
    <style>
      .cls-1 {
        fill: #98d389;
        fill-rule: evenodd;
      }
    </style>
  </defs>
  <path class="cls-1" d="M345,3187.5a13.48,13.48,0,1,1-5.234,25.91l-0.873-.37-0.9.3-3.5,1.18-0.022-4.31,0-.79-0.46-.64A13.466,13.466,0,0,1,345,3187.5m0-2.5a15.965,15.965,0,0,0-13.035,25.23l0.04,7.76,6.788-2.27A15.989,15.989,0,1,0,345,3185h0Zm6.012,12.63H338.984v2.24h12.024v-2.24h0Zm0,5.49H338.984v2.24h12.024v-2.24h0Z" transform="translate(-329 -3185)"/>
</svg>
