<svg xmlns="http://www.w3.org/2000/svg" width="23" height="23" viewBox="0 0 23 23">
  <defs>
    <style>
      .cls-1 {
        fill: #fff;
        fill-rule: evenodd;
      }
    </style>
  </defs>
  <path class="cls-1" d="M1831.5,62A11.5,11.5,0,1,1,1843,50.5,11.514,11.514,0,0,1,1831.5,62Zm0-21.625A10.124,10.124,0,1,0,1841.62,50.5,10.142,10.142,0,0,0,1831.5,40.375Zm0,21.625c-3.79,0-6.76-5.052-6.76-11.5s2.97-11.5,6.76-11.5,6.76,5.051,6.76,11.5S1835.29,62,1831.5,62Zm0-21.625c-2.92,0-5.38,4.636-5.38,10.124s2.46,10.124,5.38,10.124,5.38-4.636,5.38-10.124S1834.41,40.375,1831.5,40.375Zm0.69,20.936h-1.38V39.687h1.38V61.311Zm10.12-10.124h-21.62V49.81h21.62v1.377Zm-10.81-4.743a15.974,15.974,0,0,1-8.69-2.3L1823.58,43a16.224,16.224,0,0,0,15.84,0l0.77,1.142A16,16,0,0,1,1831.5,46.445ZM1839.42,58a16.221,16.221,0,0,0-15.84,0l-0.77-1.143a17.572,17.572,0,0,1,17.38,0Z" transform="translate(-1820 -39)"/>
</svg>
