<svg xmlns="http://www.w3.org/2000/svg" xmlns:xlink="http://www.w3.org/1999/xlink" width="53.16" height="64.97" viewBox="0 0 53.16 64.97">
  <defs>
    <style>
      .cls-1 {
        fill: #fff;
        fill-rule: evenodd;
        filter: url(#filter);
      }
    </style>
    <filter id="filter" x="1016.81" y="1958.03" width="53.16" height="64.97" filterUnits="userSpaceOnUse">
      <feFlood result="flood" flood-color="#9ad58a"/>
      <feComposite result="composite" operator="in" in2="SourceGraphic"/>
      <feBlend result="blend" in2="SourceGraphic"/>
    </filter>
  </defs>
  <path class="cls-1" d="M1041.03,1967.67a1.868,1.868,0,0,1-1.86-1.62l-0.02-.13a2.911,2.911,0,0,0-5.77,0l-0.02.13a1.868,1.868,0,0,1-1.86,1.62h-0.42a1.865,1.865,0,0,1-1.87-1.86v-6.17a1.622,1.622,0,0,1,1.63-1.62h10.43a1.622,1.622,0,0,1,1.63,1.62v6.17A1.865,1.865,0,0,1,1041.03,1967.67Zm-4.76-5.88a4.545,4.545,0,0,1,4.49,3.92l0.02,0.14a0.25,0.25,0,0,0,.25.22,0.256,0.256,0,0,0,.25-0.26v-6.17l-10.44-.01-0.02.01v6.17a0.265,0.265,0,0,0,.26.26h0.42a0.268,0.268,0,0,0,.26-0.22l0.01-.14A4.548,4.548,0,0,1,1036.27,1961.79Zm32.09,61.21h-25.9a1.618,1.618,0,0,1-1.62-1.61V1985.2a1.618,1.618,0,0,1,1.62-1.61h25.9a1.618,1.618,0,0,1,1.62,1.61v36.19A1.618,1.618,0,0,1,1068.36,2023Zm-25.9-37.8v36.19h25.9V1985.2h-25.9Zm23.65,8.17H1044.7v-5.94h21.41v5.94Zm-19.79-1.61h18.18v-2.72h-18.18v2.72Zm19.79,27.15H1044.7v-20.44h21.41v20.44Zm-19.79-1.61h18.18v-17.22h-18.18v17.22Zm4.97,0.8h-1.62v-14.18h1.62v14.18Zm4.93,0.13h-1.62v-18.96h1.62v18.96Zm4.93,0.13h-1.62V1999.4h1.62v18.96Zm4.16-13.7h-19.8v-1.61h19.8v1.61Zm0,4.9h-19.8v-1.61h19.8v1.61Zm0,4.9h-19.8v-1.61h19.8v1.61Zm-9.09-30.07h-1.62v-21.27h-12.51v-1.6h14.13v22.87Zm-14.57,30.27h-24.83v-53.14h13.19v1.6h-11.57v49.93h23.21v1.61Zm3.3-40.98h-17.99a0.805,0.805,0,1,1,0-1.61h17.99A0.805,0.805,0,0,1,1044.95,1973.68Zm0.2,4.67h-17.99a0.805,0.805,0,1,1,0-1.61h17.99A0.805,0.805,0,0,1,1045.15,1978.35Z" transform="translate(-1016.81 -1958.03)"/>
</svg>
