<svg xmlns="http://www.w3.org/2000/svg" width="26.16" height="26.16" viewBox="0 0 26.16 26.16">
  <defs>
    <style>
      .cls-1 {
        fill: #98d389;
        fill-rule: evenodd;
      }
    </style>
  </defs>
  <path class="cls-1" d="M1416.67,3375.25a13.085,13.085,0,1,0,13.08,13.09A13.089,13.089,0,0,0,1416.67,3375.25Zm3.37,10.5-0.17,2.28h-2.35v7.95h-2.96v-7.95h-1.58v-2.28h1.58v-1.54a4.093,4.093,0,0,1,.51-2.36,2.806,2.806,0,0,1,2.45-1.16,9.658,9.658,0,0,1,2.83.29l-0.39,2.34a5.356,5.356,0,0,0-1.27-.19,0.958,0.958,0,0,0-1.17.83v1.79h2.52Z" transform="translate(-1403.59 -3375.25)"/>
</svg>
